<?xml version="1.0" encoding="UTF-8" standalone="no"?>
<svg
   xmlns:dc="http://purl.org/dc/elements/1.1/"
   xmlns:cc="http://creativecommons.org/ns#"
   xmlns:rdf="http://www.w3.org/1999/02/22-rdf-syntax-ns#"
   xmlns:svg="http://www.w3.org/2000/svg"
   xmlns="http://www.w3.org/2000/svg"
   xmlns:sodipodi="http://sodipodi.sourceforge.net/DTD/sodipodi-0.dtd"
   xmlns:inkscape="http://www.inkscape.org/namespaces/inkscape"
   width="9.0139999mm"
   height="8.5109997mm"
   viewBox="0 0 9.0139999 8.5109997"
   version="1.1"
   id="svg1"
   sodipodi:docname="hexagone-filled.svg"
   inkscape:version="1.0.2 (e86c870879, 2021-01-15)">
  <metadata
     id="metadata937">
    <rdf:RDF>
      <cc:Work
         rdf:about="">
        <dc:format>image/svg+xml</dc:format>
        <dc:type
           rdf:resource="http://purl.org/dc/dcmitype/StillImage" />
        <dc:title></dc:title>
      </cc:Work>
    </rdf:RDF>
  </metadata>
  <sodipodi:namedview
     pagecolor="#ffffff"
     bordercolor="#666666"
     borderopacity="1"
     objecttolerance="10"
     gridtolerance="10"
     guidetolerance="10"
     inkscape:pageopacity="0"
     inkscape:pageshadow="2"
     inkscape:window-width="1920"
     inkscape:window-height="1029"
     id="namedview935"
     showgrid="false"
     inkscape:zoom="26.797185"
     inkscape:cx="17.034331"
     inkscape:cy="16.083779"
     inkscape:window-x="0"
     inkscape:window-y="27"
     inkscape:window-maximized="1"
     inkscape:current-layer="svg1" />
  <defs
     id="defs1">
    <clipPath
       clipPathUnits="userSpaceOnUse"
       id="clipPath115">
      <path
         d="M 0,0 H 595.276 V 841.89 H 0 Z"
         transform="translate(-204.14131,-552.86842)"
         id="path115" />
    </clipPath>
  </defs>
  <g
     id="layer1">
    <path
       id="path114"
       d="m 0,0 c 0,0 -1.031,1.859 -3.157,1.859 h -8.846 c 0,0 -2.126,0 -3.157,-1.859 l -4.488,-8.094 c 0,0 -1.031,-1.86 0,-3.719 l 4.488,-8.094 c 0,0 1.031,-1.86 3.157,-1.86 h 8.846 c 0,0 2.126,0 3.157,1.86 l 4.488,8.094 c 0,0 1.03,1.859 0,3.719 z"
       style="fill:#d22027;stroke:none;stroke-width:0.5;stroke-linecap:butt;stroke-linejoin:miter;stroke-miterlimit:4;stroke-dasharray:none;stroke-opacity:1;fill-opacity:1"
       transform="matrix(0.35277776,0,0,-0.35277776,7.1809115,0.7440083)"
       clip-path="url(#clipPath115)" />
  </g>
</svg>
