<?xml version="1.0" encoding="UTF-8" standalone="no"?>
<svg
   viewBox="47 22 1544 852"
   width="1497px"
   height="830px"
   version="1.1"
   id="svg1173"
   xmlns="http://www.w3.org/2000/svg">
  <defs
     id="defs1177" />
  <line
     x1="1012"
     y1="827"
     x2="1022"
     y2="827"
     style="stroke:#bbb;stroke-width:1;"
     id="line631" />
  <line
     x1="1397"
     y1="529"
     x2="1407"
     y2="529"
     style="stroke:#bbb;stroke-width:1;"
     id="line633" />
  <line
     x1="1022"
     y1="827"
     x2="1397"
     y2="529"
     style="stroke:#bbb;stroke-width:1;"
     id="line635" />
  <line
     x1="1019.5"
     y1="827"
     x2="1015.9644660941"
     y2="830.53553390593"
     style="stroke:#bbb;stroke-width:2;"
     id="line637" />
  <line
     x1="1019.5"
     y1="827"
     x2="1015.9644660941"
     y2="823.46446609407"
     style="stroke:#bbb;stroke-width:2;"
     id="line639" />
  <line
     x1="1402"
     y1="529"
     x2="1398.4644660941"
     y2="532.53553390593"
     style="stroke:#bbb;stroke-width:2;"
     id="line641" />
  <line
     x1="1402"
     y1="529"
     x2="1398.4644660941"
     y2="525.46446609407"
     style="stroke:#bbb;stroke-width:2;"
     id="line643" />
  <line
     x1="294"
     y1="343"
     x2="304"
     y2="343"
     style="stroke:#bbb;stroke-width:1;"
     id="line645" />
  <line
     x1="503"
     y1="437"
     x2="513"
     y2="437"
     style="stroke:#bbb;stroke-width:1;"
     id="line647" />
  <line
     x1="304"
     y1="343"
     x2="503"
     y2="437"
     style="stroke:#bbb;stroke-width:1;"
     id="line649" />
  <line
     x1="301.5"
     y1="343"
     x2="297.96446609407"
     y2="346.53553390593"
     style="stroke:#bbb;stroke-width:2;"
     id="line651" />
  <line
     x1="301.5"
     y1="343"
     x2="297.96446609407"
     y2="339.46446609407"
     style="stroke:#bbb;stroke-width:2;"
     id="line653" />
  <line
     x1="508"
     y1="437"
     x2="504.46446609407"
     y2="440.53553390593"
     style="stroke:#bbb;stroke-width:2;"
     id="line655" />
  <line
     x1="508"
     y1="437"
     x2="504.46446609407"
     y2="433.46446609407"
     style="stroke:#bbb;stroke-width:2;"
     id="line657" />
  <line
     x1="1236"
     y1="247"
     x2="1246"
     y2="247"
     style="stroke:#333;stroke-width:1;"
     id="line659" />
  <line
     x1="1397"
     y1="529"
     x2="1407"
     y2="529"
     style="stroke:#333;stroke-width:1;"
     id="line661" />
  <line
     x1="1246"
     y1="247"
     x2="1397"
     y2="529"
     style="stroke:#333;stroke-width:1;"
     id="line663" />
  <line
     x1="1243.5"
     y1="247"
     x2="1239.9644660941"
     y2="250.53553390593"
     style="stroke:#333;stroke-width:2;"
     id="line665" />
  <line
     x1="1243.5"
     y1="247"
     x2="1239.9644660941"
     y2="243.46446609407"
     style="stroke:#333;stroke-width:2;"
     id="line667" />
  <line
     x1="1402"
     y1="529"
     x2="1398.4644660941"
     y2="532.53553390593"
     style="stroke:#333;stroke-width:2;"
     id="line669" />
  <line
     x1="1402"
     y1="529"
     x2="1398.4644660941"
     y2="525.46446609407"
     style="stroke:#333;stroke-width:2;"
     id="line671" />
  <line
     x1="251"
     y1="126"
     x2="261"
     y2="126"
     style="stroke:#0b0;stroke-width:1;"
     id="line673" />
  <line
     x1="503"
     y1="437"
     x2="513"
     y2="437"
     style="stroke:#0b0;stroke-width:1;"
     id="line675" />
  <line
     x1="261"
     y1="126"
     x2="503"
     y2="437"
     style="stroke:#0b0;stroke-width:1;"
     id="line677" />
  <line
     x1="258.5"
     y1="126"
     x2="254.96446609407"
     y2="129.53553390593"
     style="stroke:#0b0;stroke-width:2;"
     id="line679" />
  <line
     x1="258.5"
     y1="126"
     x2="254.96446609407"
     y2="122.46446609407"
     style="stroke:#0b0;stroke-width:2;"
     id="line681" />
  <line
     x1="508"
     y1="437"
     x2="504.46446609407"
     y2="440.53553390593"
     style="stroke:#0b0;stroke-width:2;"
     id="line683" />
  <line
     x1="508"
     y1="437"
     x2="504.46446609407"
     y2="433.46446609407"
     style="stroke:#0b0;stroke-width:2;"
     id="line685" />
  <line
     x1="231"
     y1="542"
     x2="241"
     y2="542"
     style="stroke:#333;stroke-width:1;"
     id="line687" />
  <line
     x1="503"
     y1="437"
     x2="513"
     y2="437"
     style="stroke:#333;stroke-width:1;"
     id="line689" />
  <line
     x1="241"
     y1="542"
     x2="503"
     y2="437"
     style="stroke:#333;stroke-width:1;"
     id="line691" />
  <line
     x1="238.5"
     y1="542"
     x2="234.96446609407"
     y2="545.53553390593"
     style="stroke:#333;stroke-width:2;"
     id="line693" />
  <line
     x1="238.5"
     y1="542"
     x2="234.96446609407"
     y2="538.46446609407"
     style="stroke:#333;stroke-width:2;"
     id="line695" />
  <line
     x1="508"
     y1="437"
     x2="504.46446609407"
     y2="440.53553390593"
     style="stroke:#333;stroke-width:2;"
     id="line697" />
  <line
     x1="508"
     y1="437"
     x2="504.46446609407"
     y2="433.46446609407"
     style="stroke:#333;stroke-width:2;"
     id="line699" />
  <line
     x1="231"
     y1="673"
     x2="241"
     y2="673"
     style="stroke:#bbb;stroke-width:1;"
     id="line701" />
  <line
     x1="503"
     y1="437"
     x2="513"
     y2="437"
     style="stroke:#bbb;stroke-width:1;"
     id="line703" />
  <line
     x1="241"
     y1="673"
     x2="503"
     y2="437"
     style="stroke:#bbb;stroke-width:1;"
     id="line705" />
  <line
     x1="238.5"
     y1="673"
     x2="234.96446609407"
     y2="676.53553390593"
     style="stroke:#bbb;stroke-width:2;"
     id="line707" />
  <line
     x1="238.5"
     y1="673"
     x2="234.96446609407"
     y2="669.46446609407"
     style="stroke:#bbb;stroke-width:2;"
     id="line709" />
  <line
     x1="508"
     y1="437"
     x2="504.46446609407"
     y2="440.53553390593"
     style="stroke:#bbb;stroke-width:2;"
     id="line711" />
  <line
     x1="508"
     y1="437"
     x2="504.46446609407"
     y2="433.46446609407"
     style="stroke:#bbb;stroke-width:2;"
     id="line713" />
  <line
     x1="1070"
     y1="400"
     x2="1060"
     y2="400"
     style="stroke:#cb0;stroke-width:1;"
     id="line715" />
  <line
     x1="1060"
     y1="470"
     x2="1070"
     y2="470"
     style="stroke:#cb0;stroke-width:1;"
     id="line717" />
  <line
     x1="1060"
     y1="400"
     x2="1060"
     y2="470"
     style="stroke:#cb0;stroke-width:1;"
     id="line719" />
  <line
     x1="1062.5"
     y1="400"
     x2="1066.0355339059"
     y2="403.53553390593"
     style="stroke:#cb0;stroke-width:2;"
     id="line721" />
  <line
     x1="1062.5"
     y1="400"
     x2="1066.0355339059"
     y2="396.46446609407"
     style="stroke:#cb0;stroke-width:2;"
     id="line723" />
  <line
     x1="1065"
     y1="470"
     x2="1061.4644660941"
     y2="473.53553390593"
     style="stroke:#cb0;stroke-width:2;"
     id="line725" />
  <line
     x1="1065"
     y1="470"
     x2="1061.4644660941"
     y2="466.46446609407"
     style="stroke:#cb0;stroke-width:2;"
     id="line727" />
  <line
     x1="294"
     y1="796"
     x2="304"
     y2="796"
     style="stroke:#b0b;stroke-width:1;"
     id="line729" />
  <line
     x1="503"
     y1="437"
     x2="513"
     y2="437"
     style="stroke:#b0b;stroke-width:1;"
     id="line731" />
  <line
     x1="304"
     y1="796"
     x2="503"
     y2="437"
     style="stroke:#b0b;stroke-width:1;"
     id="line733" />
  <line
     x1="301.5"
     y1="796"
     x2="297.96446609407"
     y2="799.53553390593"
     style="stroke:#b0b;stroke-width:2;"
     id="line735" />
  <line
     x1="301.5"
     y1="796"
     x2="297.96446609407"
     y2="792.46446609407"
     style="stroke:#b0b;stroke-width:2;"
     id="line737" />
  <line
     x1="508"
     y1="437"
     x2="504.46446609407"
     y2="440.53553390593"
     style="stroke:#b0b;stroke-width:2;"
     id="line739" />
  <line
     x1="508"
     y1="437"
     x2="504.46446609407"
     y2="433.46446609407"
     style="stroke:#b0b;stroke-width:2;"
     id="line741" />
  <line
     x1="983"
     y1="584"
     x2="993"
     y2="584"
     style="stroke:#0b0;stroke-width:1;"
     id="line743" />
  <line
     x1="1397"
     y1="529"
     x2="1407"
     y2="529"
     style="stroke:#0b0;stroke-width:1;"
     id="line745" />
  <line
     x1="993"
     y1="584"
     x2="1397"
     y2="529"
     style="stroke:#0b0;stroke-width:1;"
     id="line747" />
  <line
     x1="990.5"
     y1="584"
     x2="986.96446609407"
     y2="587.53553390593"
     style="stroke:#0b0;stroke-width:2;"
     id="line749" />
  <line
     x1="990.5"
     y1="584"
     x2="986.96446609407"
     y2="580.46446609407"
     style="stroke:#0b0;stroke-width:2;"
     id="line751" />
  <line
     x1="1402"
     y1="529"
     x2="1398.4644660941"
     y2="532.53553390593"
     style="stroke:#0b0;stroke-width:2;"
     id="line753" />
  <line
     x1="1402"
     y1="529"
     x2="1398.4644660941"
     y2="525.46446609407"
     style="stroke:#0b0;stroke-width:2;"
     id="line755" />
  <line
     x1="640"
     y1="457"
     x2="650"
     y2="457"
     style="stroke:#0bf;stroke-width:1;"
     id="line757" />
  <line
     x1="802"
     y1="315"
     x2="812"
     y2="315"
     style="stroke:#0bf;stroke-width:1;"
     id="line759" />
  <line
     x1="650"
     y1="457"
     x2="802"
     y2="315"
     style="stroke:#0bf;stroke-width:1;"
     id="line761" />
  <line
     x1="647.5"
     y1="457"
     x2="643.96446609407"
     y2="460.53553390593"
     style="stroke:#0bf;stroke-width:2;"
     id="line763" />
  <line
     x1="647.5"
     y1="457"
     x2="643.96446609407"
     y2="453.46446609407"
     style="stroke:#0bf;stroke-width:2;"
     id="line765" />
  <line
     x1="807"
     y1="315"
     x2="803.46446609407"
     y2="318.53553390593"
     style="stroke:#0bf;stroke-width:2;"
     id="line767" />
  <line
     x1="807"
     y1="315"
     x2="803.46446609407"
     y2="311.46446609407"
     style="stroke:#0bf;stroke-width:2;"
     id="line769" />
  <line
     x1="640"
     y1="477"
     x2="650"
     y2="477"
     style="stroke:#333;stroke-width:1;"
     id="line771" />
  <line
     x1="795"
     y1="687"
     x2="805"
     y2="687"
     style="stroke:#333;stroke-width:1;"
     id="line773" />
  <line
     x1="650"
     y1="477"
     x2="795"
     y2="687"
     style="stroke:#333;stroke-width:1;"
     id="line775" />
  <line
     x1="647.5"
     y1="477"
     x2="643.96446609407"
     y2="480.53553390593"
     style="stroke:#333;stroke-width:2;"
     id="line777" />
  <line
     x1="647.5"
     y1="477"
     x2="643.96446609407"
     y2="473.46446609407"
     style="stroke:#333;stroke-width:2;"
     id="line779" />
  <line
     x1="800"
     y1="687"
     x2="796.46446609407"
     y2="690.53553390593"
     style="stroke:#333;stroke-width:2;"
     id="line781" />
  <line
     x1="800"
     y1="687"
     x2="796.46446609407"
     y2="683.46446609407"
     style="stroke:#333;stroke-width:2;"
     id="line783" />
  <line
     x1="918"
     y1="335"
     x2="928"
     y2="335"
     style="stroke:#0bf;stroke-width:1;"
     id="line785" />
  <line
     x1="1058"
     y1="67"
     x2="1068"
     y2="67"
     style="stroke:#0bf;stroke-width:1;"
     id="line787" />
  <line
     x1="928"
     y1="335"
     x2="1058"
     y2="67"
     style="stroke:#0bf;stroke-width:1;"
     id="line789" />
  <line
     x1="925.5"
     y1="335"
     x2="921.96446609407"
     y2="338.53553390593"
     style="stroke:#0bf;stroke-width:2;"
     id="line791" />
  <line
     x1="925.5"
     y1="335"
     x2="921.96446609407"
     y2="331.46446609407"
     style="stroke:#0bf;stroke-width:2;"
     id="line793" />
  <line
     x1="1063"
     y1="67"
     x2="1059.4644660941"
     y2="70.535533905933"
     style="stroke:#0bf;stroke-width:2;"
     id="line795" />
  <line
     x1="1063"
     y1="67"
     x2="1059.4644660941"
     y2="63.464466094067"
     style="stroke:#0bf;stroke-width:2;"
     id="line797" />
  <line
     x1="918"
     y1="355"
     x2="928"
     y2="355"
     style="stroke:#b0b;stroke-width:1;"
     id="line799" />
  <line
     x1="1060"
     y1="360"
     x2="1070"
     y2="360"
     style="stroke:#b0b;stroke-width:1;"
     id="line801" />
  <line
     x1="928"
     y1="355"
     x2="1060"
     y2="360"
     style="stroke:#b0b;stroke-width:1;"
     id="line803" />
  <line
     x1="925.5"
     y1="355"
     x2="921.96446609407"
     y2="358.53553390593"
     style="stroke:#b0b;stroke-width:2;"
     id="line805" />
  <line
     x1="925.5"
     y1="355"
     x2="921.96446609407"
     y2="351.46446609407"
     style="stroke:#b0b;stroke-width:2;"
     id="line807" />
  <line
     x1="1065"
     y1="360"
     x2="1061.4644660941"
     y2="363.53553390593"
     style="stroke:#b0b;stroke-width:2;"
     id="line809" />
  <line
     x1="1065"
     y1="360"
     x2="1061.4644660941"
     y2="356.46446609407"
     style="stroke:#b0b;stroke-width:2;"
     id="line811" />
  <rect
     width="207"
     height="20"
     x="805"
     y="657"
     style="fill:#007;stroke:black;"
     id="rect813" />
  <text
     width="207"
     height="20"
     x="810"
     y="671"
     style="fill:#fff;"
     font-family="Arial"
     font-size="16px"
     id="text815"> assurance</text>
  <rect
     width="207"
     height="20"
     x="805"
     y="677"
     style="fill:#aea;stroke:black;"
     id="rect817" />
  <text
     width="207"
     height="20"
     x="810"
     y="691"
     style="fill:black;"
     font-family="Arial"
     font-size="16px"
     id="text819">IDASSURANCE</text>
  <rect
     width="207"
     height="20"
     x="805"
     y="697"
     style="fill:none;stroke:black;"
     id="rect821" />
  <text
     width="207"
     height="20"
     x="810"
     y="711"
     style="fill:black;"
     font-family="Arial"
     font-size="16px"
     id="text823">NOMASSURANCE</text>
  <rect
     width="207"
     height="20"
     x="805"
     y="717"
     style="fill:none;stroke:black;"
     id="rect825" />
  <text
     width="207"
     height="20"
     x="810"
     y="731"
     style="fill:black;"
     font-family="Arial"
     font-size="16px"
     id="text827">ADRESSE1ASSURANCE</text>
  <rect
     width="207"
     height="20"
     x="805"
     y="737"
     style="fill:none;stroke:black;"
     id="rect829" />
  <text
     width="207"
     height="20"
     x="810"
     y="751"
     style="fill:black;"
     font-family="Arial"
     font-size="16px"
     id="text831">ADRESSE2ASSURANCE</text>
  <rect
     width="207"
     height="20"
     x="805"
     y="757"
     style="fill:none;stroke:black;"
     id="rect833" />
  <text
     width="207"
     height="20"
     x="810"
     y="771"
     style="fill:black;"
     font-family="Arial"
     font-size="16px"
     id="text835">CPASSURANCE</text>
  <rect
     width="207"
     height="20"
     x="805"
     y="777"
     style="fill:none;stroke:black;"
     id="rect837" />
  <text
     width="207"
     height="20"
     x="810"
     y="791"
     style="fill:black;"
     font-family="Arial"
     font-size="16px"
     id="text839">VILLEASSURANCE</text>
  <rect
     width="207"
     height="20"
     x="805"
     y="797"
     style="fill:none;stroke:black;"
     id="rect841" />
  <text
     width="207"
     height="20"
     x="810"
     y="811"
     style="fill:black;"
     font-family="Arial"
     font-size="16px"
     id="text843">TELEPHONEASSURANCE</text>
  <rect
     width="207"
     height="20"
     x="805"
     y="817"
     style="fill:none;stroke:black;"
     id="rect845" />
  <text
     width="207"
     height="20"
     x="810"
     y="831"
     style="fill:black;"
     font-family="Arial"
     font-size="16px"
     id="text847">USERID</text>
  <rect
     width="177"
     height="20"
     x="117"
     y="253"
     style="fill:#007;stroke:black;"
     id="rect849" />
  <text
     width="177"
     height="20"
     x="122"
     y="267"
     style="fill:#fff;"
     font-family="Arial"
     font-size="16px"
     id="text851"> cessioncreance</text>
  <rect
     width="177"
     height="20"
     x="117"
     y="273"
     style="fill:#aea;stroke:black;"
     id="rect853" />
  <text
     width="177"
     height="20"
     x="122"
     y="287"
     style="fill:black;"
     font-family="Arial"
     font-size="16px"
     id="text855">IDCESSIONCREANCE</text>
  <rect
     width="177"
     height="20"
     x="117"
     y="293"
     style="fill:none;stroke:black;"
     id="rect857" />
  <text
     width="177"
     height="20"
     x="122"
     y="307"
     style="fill:black;"
     font-family="Arial"
     font-size="16px"
     id="text859">DATEDOC</text>
  <rect
     width="177"
     height="20"
     x="117"
     y="313"
     style="fill:none;stroke:black;"
     id="rect861" />
  <text
     width="177"
     height="20"
     x="122"
     y="327"
     style="fill:black;"
     font-family="Arial"
     font-size="16px"
     id="text863">NUMRAR</text>
  <rect
     width="177"
     height="20"
     x="117"
     y="333"
     style="fill:none;stroke:black;"
     id="rect865" />
  <text
     width="177"
     height="20"
     x="122"
     y="347"
     style="fill:black;"
     font-family="Arial"
     font-size="16px"
     id="text867">SINISTREID</text>
  <rect
     width="168"
     height="20"
     x="1068"
     y="37"
     style="fill:#007;stroke:black;"
     id="rect869" />
  <text
     width="168"
     height="20"
     x="1073"
     y="51"
     style="fill:#fff;"
     font-family="Arial"
     font-size="16px"
     id="text871"> client</text>
  <rect
     width="168"
     height="20"
     x="1068"
     y="57"
     style="fill:#aea;stroke:black;"
     id="rect873" />
  <text
     width="168"
     height="20"
     x="1073"
     y="71"
     style="fill:black;"
     font-family="Arial"
     font-size="16px"
     id="text875">ID</text>
  <rect
     width="168"
     height="20"
     x="1068"
     y="77"
     style="fill:none;stroke:black;"
     id="rect877" />
  <text
     width="168"
     height="20"
     x="1073"
     y="91"
     style="fill:black;"
     font-family="Arial"
     font-size="16px"
     id="text879">CIVILITE</text>
  <rect
     width="168"
     height="20"
     x="1068"
     y="97"
     style="fill:none;stroke:black;"
     id="rect881" />
  <text
     width="168"
     height="20"
     x="1073"
     y="111"
     style="fill:black;"
     font-family="Arial"
     font-size="16px"
     id="text883">PRENOMSIRET</text>
  <rect
     width="168"
     height="20"
     x="1068"
     y="117"
     style="fill:none;stroke:black;"
     id="rect885" />
  <text
     width="168"
     height="20"
     x="1073"
     y="131"
     style="fill:black;"
     font-family="Arial"
     font-size="16px"
     id="text887">NOMRAISONSOCIAL</text>
  <rect
     width="168"
     height="20"
     x="1068"
     y="137"
     style="fill:none;stroke:black;"
     id="rect889" />
  <text
     width="168"
     height="20"
     x="1073"
     y="151"
     style="fill:black;"
     font-family="Arial"
     font-size="16px"
     id="text891">ADDRESS1</text>
  <rect
     width="168"
     height="20"
     x="1068"
     y="157"
     style="fill:none;stroke:black;"
     id="rect893" />
  <text
     width="168"
     height="20"
     x="1073"
     y="171"
     style="fill:black;"
     font-family="Arial"
     font-size="16px"
     id="text895">ADRESSS2</text>
  <rect
     width="168"
     height="20"
     x="1068"
     y="177"
     style="fill:none;stroke:black;"
     id="rect897" />
  <text
     width="168"
     height="20"
     x="1073"
     y="191"
     style="fill:black;"
     font-family="Arial"
     font-size="16px"
     id="text899">CODEPOSTAL</text>
  <rect
     width="168"
     height="20"
     x="1068"
     y="197"
     style="fill:none;stroke:black;"
     id="rect901" />
  <text
     width="168"
     height="20"
     x="1073"
     y="211"
     style="fill:black;"
     font-family="Arial"
     font-size="16px"
     id="text903">VILLE</text>
  <rect
     width="168"
     height="20"
     x="1068"
     y="217"
     style="fill:none;stroke:black;"
     id="rect905" />
  <text
     width="168"
     height="20"
     x="1073"
     y="231"
     style="fill:black;"
     font-family="Arial"
     font-size="16px"
     id="text907">TELEPHONE</text>
  <rect
     width="168"
     height="20"
     x="1068"
     y="237"
     style="fill:none;stroke:black;"
     id="rect909" />
  <text
     width="168"
     height="20"
     x="1073"
     y="251"
     style="fill:black;"
     font-family="Arial"
     font-size="16px"
     id="text911">USERID</text>
  <rect
     width="119"
     height="20"
     x="667"
     y="91"
     style="fill:#007;stroke:black;"
     id="rect913" />
  <text
     width="119"
     height="20"
     x="672"
     y="105"
     style="fill:#fff;"
     font-family="Arial"
     font-size="16px"
     id="text915"> commune</text>
  <rect
     width="119"
     height="20"
     x="667"
     y="111"
     style="fill:#aea;stroke:black;"
     id="rect917" />
  <text
     width="119"
     height="20"
     x="672"
     y="125"
     style="fill:black;"
     font-family="Arial"
     font-size="16px"
     id="text919">idCommune</text>
  <rect
     width="119"
     height="20"
     x="667"
     y="131"
     style="fill:none;stroke:black;"
     id="rect921" />
  <text
     width="119"
     height="20"
     x="672"
     y="145"
     style="fill:black;"
     font-family="Arial"
     font-size="16px"
     id="text923">CODEPOSTAL</text>
  <rect
     width="119"
     height="20"
     x="667"
     y="151"
     style="fill:none;stroke:black;"
     id="rect925" />
  <text
     width="119"
     height="20"
     x="672"
     y="165"
     style="fill:black;"
     font-family="Arial"
     font-size="16px"
     id="text927">COMMUNE</text>
  <rect
     width="165"
     height="20"
     x="86"
     y="56"
     style="fill:#007;stroke:black;"
     id="rect929" />
  <text
     width="165"
     height="20"
     x="91"
     y="70"
     style="fill:#fff;"
     font-family="Arial"
     font-size="16px"
     id="text931"> demandereglement</text>
  <rect
     width="165"
     height="20"
     x="86"
     y="76"
     style="fill:#aea;stroke:black;"
     id="rect933" />
  <text
     width="165"
     height="20"
     x="91"
     y="90"
     style="fill:black;"
     font-family="Arial"
     font-size="16px"
     id="text935">IDDR</text>
  <rect
     width="165"
     height="20"
     x="86"
     y="96"
     style="fill:none;stroke:black;"
     id="rect937" />
  <text
     width="165"
     height="20"
     x="91"
     y="110"
     style="fill:black;"
     font-family="Arial"
     font-size="16px"
     id="text939">DATEDR</text>
  <rect
     width="165"
     height="20"
     x="86"
     y="116"
     style="fill:none;stroke:black;"
     id="rect941" />
  <text
     width="165"
     height="20"
     x="91"
     y="130"
     style="fill:black;"
     font-family="Arial"
     font-size="16px"
     id="text943">SINISTREID</text>
  <rect
     width="165"
     height="20"
     x="86"
     y="136"
     style="fill:none;stroke:black;"
     id="rect945" />
  <text
     width="165"
     height="20"
     x="91"
     y="150"
     style="fill:black;"
     font-family="Arial"
     font-size="16px"
     id="text947">RARDR</text>
  <rect
     width="165"
     height="20"
     x="86"
     y="156"
     style="fill:none;stroke:black;"
     id="rect949" />
  <text
     width="165"
     height="20"
     x="91"
     y="170"
     style="fill:black;"
     font-family="Arial"
     font-size="16px"
     id="text951">MONTANTFACTURE</text>
  <rect
     width="169"
     height="20"
     x="62"
     y="452"
     style="fill:#007;stroke:black;"
     id="rect953" />
  <text
     width="169"
     height="20"
     x="67"
     y="466"
     style="fill:#fff;"
     font-family="Arial"
     font-size="16px"
     id="text955"> lettreaccompagnement</text>
  <rect
     width="169"
     height="20"
     x="62"
     y="472"
     style="fill:#aea;stroke:black;"
     id="rect957" />
  <text
     width="169"
     height="20"
     x="67"
     y="486"
     style="fill:black;"
     font-family="Arial"
     font-size="16px"
     id="text959">IDLETTREACC</text>
  <rect
     width="169"
     height="20"
     x="62"
     y="492"
     style="fill:none;stroke:black;"
     id="rect961" />
  <text
     width="169"
     height="20"
     x="67"
     y="506"
     style="fill:black;"
     font-family="Arial"
     font-size="16px"
     id="text963">DATELETTREACC</text>
  <rect
     width="169"
     height="20"
     x="62"
     y="512"
     style="fill:none;stroke:black;"
     id="rect965" />
  <text
     width="169"
     height="20"
     x="67"
     y="526"
     style="fill:black;"
     font-family="Arial"
     font-size="16px"
     id="text967">NUMFACTURE</text>
  <rect
     width="169"
     height="20"
     x="62"
     y="532"
     style="fill:none;stroke:black;"
     id="rect969" />
  <text
     width="169"
     height="20"
     x="67"
     y="546"
     style="fill:black;"
     font-family="Arial"
     font-size="16px"
     id="text971">SINISTREID</text>
  <rect
     width="118"
     height="20"
     x="1070"
     y="440"
     style="fill:#007;stroke:black;"
     id="rect973" />
  <text
     width="118"
     height="20"
     x="1075"
     y="454"
     style="fill:#fff;"
     font-family="Arial"
     font-size="16px"
     id="text975"> marquevoiture</text>
  <rect
     width="118"
     height="20"
     x="1070"
     y="460"
     style="fill:#aea;stroke:black;"
     id="rect977" />
  <text
     width="118"
     height="20"
     x="1075"
     y="474"
     style="fill:black;"
     font-family="Arial"
     font-size="16px"
     id="text979">ID</text>
  <rect
     width="118"
     height="20"
     x="1070"
     y="480"
     style="fill:none;stroke:black;"
     id="rect981" />
  <text
     width="118"
     height="20"
     x="1075"
     y="494"
     style="fill:black;"
     font-family="Arial"
     font-size="16px"
     id="text983">NOMMARQUE</text>
  <rect
     width="123"
     height="20"
     x="108"
     y="583"
     style="fill:#007;stroke:black;"
     id="rect985" />
  <text
     width="123"
     height="20"
     x="113"
     y="597"
     style="fill:#fff;"
     font-family="Arial"
     font-size="16px"
     id="text987"> miseendemeure</text>
  <rect
     width="123"
     height="20"
     x="108"
     y="603"
     style="fill:#aea;stroke:black;"
     id="rect989" />
  <text
     width="123"
     height="20"
     x="113"
     y="617"
     style="fill:black;"
     font-family="Arial"
     font-size="16px"
     id="text991">IDMED</text>
  <rect
     width="123"
     height="20"
     x="108"
     y="623"
     style="fill:none;stroke:black;"
     id="rect993" />
  <text
     width="123"
     height="20"
     x="113"
     y="637"
     style="fill:black;"
     font-family="Arial"
     font-size="16px"
     id="text995">DATEMED</text>
  <rect
     width="123"
     height="20"
     x="108"
     y="643"
     style="fill:none;stroke:black;"
     id="rect997" />
  <text
     width="123"
     height="20"
     x="113"
     y="657"
     style="fill:black;"
     font-family="Arial"
     font-size="16px"
     id="text999">NUMRARMED</text>
  <rect
     width="123"
     height="20"
     x="108"
     y="663"
     style="fill:none;stroke:black;"
     id="rect1001" />
  <text
     width="123"
     height="20"
     x="113"
     y="677"
     style="fill:black;"
     font-family="Arial"
     font-size="16px"
     id="text1003">SINISTREID</text>
  <rect
     width="176"
     height="20"
     x="1070"
     y="330"
     style="fill:#007;stroke:black;"
     id="rect1005" />
  <text
     width="176"
     height="20"
     x="1075"
     y="344"
     style="fill:#fff;"
     font-family="Arial"
     font-size="16px"
     id="text1007"> modelvoiture</text>
  <rect
     width="176"
     height="20"
     x="1070"
     y="350"
     style="fill:#aea;stroke:black;"
     id="rect1009" />
  <text
     width="176"
     height="20"
     x="1075"
     y="364"
     style="fill:black;"
     font-family="Arial"
     font-size="16px"
     id="text1011">IDMODELVOITURE</text>
  <rect
     width="176"
     height="20"
     x="1070"
     y="370"
     style="fill:none;stroke:black;"
     id="rect1013" />
  <text
     width="176"
     height="20"
     x="1075"
     y="384"
     style="fill:black;"
     font-family="Arial"
     font-size="16px"
     id="text1015">NOMMODELVOITURE</text>
  <rect
     width="176"
     height="20"
     x="1070"
     y="390"
     style="fill:none;stroke:black;"
     id="rect1017" />
  <text
     width="176"
     height="20"
     x="1075"
     y="404"
     style="fill:black;"
     font-family="Arial"
     font-size="16px"
     id="text1019">IDMARQUEVOITURE</text>
  <rect
     width="129"
     height="20"
     x="165"
     y="726"
     style="fill:#007;stroke:black;"
     id="rect1021" />
  <text
     width="129"
     height="20"
     x="170"
     y="740"
     style="fill:#fff;"
     font-family="Arial"
     font-size="16px"
     id="text1023"> relance</text>
  <rect
     width="129"
     height="20"
     x="165"
     y="746"
     style="fill:#aea;stroke:black;"
     id="rect1025" />
  <text
     width="129"
     height="20"
     x="170"
     y="760"
     style="fill:black;"
     font-family="Arial"
     font-size="16px"
     id="text1027">IDRELANCE</text>
  <rect
     width="129"
     height="20"
     x="165"
     y="766"
     style="fill:none;stroke:black;"
     id="rect1029" />
  <text
     width="129"
     height="20"
     x="170"
     y="780"
     style="fill:black;"
     font-family="Arial"
     font-size="16px"
     id="text1031">DATERELANCE</text>
  <rect
     width="129"
     height="20"
     x="165"
     y="786"
     style="fill:none;stroke:black;"
     id="rect1033" />
  <text
     width="129"
     height="20"
     x="170"
     y="800"
     style="fill:black;"
     font-family="Arial"
     font-size="16px"
     id="text1035">SINISTREID</text>
  <rect
     width="178"
     height="20"
     x="805"
     y="494"
     style="fill:#007;stroke:black;"
     id="rect1037" />
  <text
     width="178"
     height="20"
     x="810"
     y="508"
     style="fill:#fff;"
     font-family="Arial"
     font-size="16px"
     id="text1039"> signataire</text>
  <rect
     width="178"
     height="20"
     x="805"
     y="514"
     style="fill:#aea;stroke:black;"
     id="rect1041" />
  <text
     width="178"
     height="20"
     x="810"
     y="528"
     style="fill:black;"
     font-family="Arial"
     font-size="16px"
     id="text1043">IDSIGNATAIRE</text>
  <rect
     width="178"
     height="20"
     x="805"
     y="534"
     style="fill:none;stroke:black;"
     id="rect1045" />
  <text
     width="178"
     height="20"
     x="810"
     y="548"
     style="fill:black;"
     font-family="Arial"
     font-size="16px"
     id="text1047">PRENOMSIGNATAIRE</text>
  <rect
     width="178"
     height="20"
     x="805"
     y="554"
     style="fill:none;stroke:black;"
     id="rect1049" />
  <text
     width="178"
     height="20"
     x="810"
     y="568"
     style="fill:black;"
     font-family="Arial"
     font-size="16px"
     id="text1051">NOMSIGNATAIRE</text>
  <rect
     width="178"
     height="20"
     x="805"
     y="574"
     style="fill:none;stroke:black;"
     id="rect1053" />
  <text
     width="178"
     height="20"
     x="810"
     y="588"
     style="fill:black;"
     font-family="Arial"
     font-size="16px"
     id="text1055">USERID</text>
  <rect
     width="178"
     height="20"
     x="805"
     y="594"
     style="fill:none;stroke:black;"
     id="rect1057" />
  <text
     width="178"
     height="20"
     x="810"
     y="608"
     style="fill:black;"
     font-family="Arial"
     font-size="16px"
     id="text1059">FONCTION</text>
  <rect
     width="127"
     height="20"
     x="513"
     y="407"
     style="fill:#007;stroke:black;"
     id="rect1061" />
  <text
     width="127"
     height="20"
     x="518"
     y="421"
     style="fill:#fff;"
     font-family="Arial"
     font-size="16px"
     id="text1063"> sinistre</text>
  <rect
     width="127"
     height="20"
     x="513"
     y="427"
     style="fill:#aea;stroke:black;"
     id="rect1065" />
  <text
     width="127"
     height="20"
     x="518"
     y="441"
     style="fill:black;"
     font-family="Arial"
     font-size="16px"
     id="text1067">IDSINISTRE</text>
  <rect
     width="127"
     height="20"
     x="513"
     y="447"
     style="fill:none;stroke:black;"
     id="rect1069" />
  <text
     width="127"
     height="20"
     x="518"
     y="461"
     style="fill:black;"
     font-family="Arial"
     font-size="16px"
     id="text1071">VEHICULEID</text>
  <rect
     width="127"
     height="20"
     x="513"
     y="467"
     style="fill:none;stroke:black;"
     id="rect1073" />
  <text
     width="127"
     height="20"
     x="518"
     y="481"
     style="fill:black;"
     font-family="Arial"
     font-size="16px"
     id="text1075">ASSURANCEID</text>
  <rect
     width="127"
     height="20"
     x="513"
     y="487"
     style="fill:none;stroke:black;"
     id="rect1077" />
  <text
     width="127"
     height="20"
     x="518"
     y="501"
     style="fill:black;"
     font-family="Arial"
     font-size="16px"
     id="text1079">CONTRATNUM</text>
  <rect
     width="127"
     height="20"
     x="513"
     y="507"
     style="fill:none;stroke:black;"
     id="rect1081" />
  <text
     width="127"
     height="20"
     x="518"
     y="521"
     style="fill:black;"
     font-family="Arial"
     font-size="16px"
     id="text1083">DATESINISTRE</text>
  <rect
     width="127"
     height="20"
     x="513"
     y="527"
     style="fill:none;stroke:black;"
     id="rect1085" />
  <text
     width="127"
     height="20"
     x="518"
     y="541"
     style="fill:black;"
     font-family="Arial"
     font-size="16px"
     id="text1087">TYPESINISTRE</text>
  <rect
     width="127"
     height="20"
     x="513"
     y="547"
     style="fill:none;stroke:black;"
     id="rect1089" />
  <text
     width="127"
     height="20"
     x="518"
     y="561"
     style="fill:black;"
     font-family="Arial"
     font-size="16px"
     id="text1091">REFSINISTRE</text>
  <rect
     width="122"
     height="20"
     x="1407"
     y="499"
     style="fill:#007;stroke:black;"
     id="rect1093" />
  <text
     width="122"
     height="20"
     x="1412"
     y="513"
     style="fill:#fff;"
     font-family="Arial"
     font-size="16px"
     id="text1095"> utilisateur</text>
  <rect
     width="122"
     height="20"
     x="1407"
     y="519"
     style="fill:#aea;stroke:black;"
     id="rect1097" />
  <text
     width="122"
     height="20"
     x="1412"
     y="533"
     style="fill:black;"
     font-family="Arial"
     font-size="16px"
     id="text1099">ID</text>
  <rect
     width="122"
     height="20"
     x="1407"
     y="539"
     style="fill:none;stroke:black;"
     id="rect1101" />
  <text
     width="122"
     height="20"
     x="1412"
     y="553"
     style="fill:black;"
     font-family="Arial"
     font-size="16px"
     id="text1103">ISADMIN</text>
  <rect
     width="122"
     height="20"
     x="1407"
     y="559"
     style="fill:none;stroke:black;"
     id="rect1105" />
  <text
     width="122"
     height="20"
     x="1412"
     y="573"
     style="fill:black;"
     font-family="Arial"
     font-size="16px"
     id="text1107">PASS</text>
  <rect
     width="122"
     height="20"
     x="1407"
     y="579"
     style="fill:none;stroke:black;"
     id="rect1109" />
  <text
     width="122"
     height="20"
     x="1412"
     y="593"
     style="fill:black;"
     font-family="Arial"
     font-size="16px"
     id="text1111">COMPANY</text>
  <rect
     width="122"
     height="20"
     x="1407"
     y="599"
     style="fill:none;stroke:black;"
     id="rect1113" />
  <text
     width="122"
     height="20"
     x="1412"
     y="613"
     style="fill:black;"
     font-family="Arial"
     font-size="16px"
     id="text1115">SIRET</text>
  <rect
     width="122"
     height="20"
     x="1407"
     y="619"
     style="fill:none;stroke:black;"
     id="rect1117" />
  <text
     width="122"
     height="20"
     x="1412"
     y="633"
     style="fill:black;"
     font-family="Arial"
     font-size="16px"
     id="text1119">CODEPOSTAL</text>
  <rect
     width="122"
     height="20"
     x="1407"
     y="639"
     style="fill:none;stroke:black;"
     id="rect1121" />
  <text
     width="122"
     height="20"
     x="1412"
     y="653"
     style="fill:black;"
     font-family="Arial"
     font-size="16px"
     id="text1123">TOWN</text>
  <rect
     width="122"
     height="20"
     x="1407"
     y="659"
     style="fill:none;stroke:black;"
     id="rect1125" />
  <text
     width="122"
     height="20"
     x="1412"
     y="673"
     style="fill:black;"
     font-family="Arial"
     font-size="16px"
     id="text1127">PHONE</text>
  <rect
     width="122"
     height="20"
     x="1407"
     y="679"
     style="fill:none;stroke:black;"
     id="rect1129" />
  <text
     width="122"
     height="20"
     x="1412"
     y="693"
     style="fill:black;"
     font-family="Arial"
     font-size="16px"
     id="text1131">USERNAME</text>
  <rect
     width="122"
     height="20"
     x="1407"
     y="699"
     style="fill:none;stroke:black;"
     id="rect1133" />
  <text
     width="122"
     height="20"
     x="1412"
     y="713"
     style="fill:black;"
     font-family="Arial"
     font-size="16px"
     id="text1135">ADDRESS1</text>
  <rect
     width="122"
     height="20"
     x="1407"
     y="719"
     style="fill:none;stroke:black;"
     id="rect1137" />
  <text
     width="122"
     height="20"
     x="1412"
     y="733"
     style="fill:black;"
     font-family="Arial"
     font-size="16px"
     id="text1139">ADDRESS2</text>
  <rect
     width="122"
     height="20"
     x="1407"
     y="739"
     style="fill:none;stroke:black;"
     id="rect1141" />
  <text
     width="122"
     height="20"
     x="1412"
     y="753"
     style="fill:black;"
     font-family="Arial"
     font-size="16px"
     id="text1143">CAPITALCARR</text>
  <rect
     width="106"
     height="20"
     x="812"
     y="285"
     style="fill:#007;stroke:black;"
     id="rect1145" />
  <text
     width="106"
     height="20"
     x="817"
     y="299"
     style="fill:#fff;"
     font-family="Arial"
     font-size="16px"
     id="text1147"> vehicule</text>
  <rect
     width="106"
     height="20"
     x="812"
     y="305"
     style="fill:#aea;stroke:black;"
     id="rect1149" />
  <text
     width="106"
     height="20"
     x="817"
     y="319"
     style="fill:black;"
     font-family="Arial"
     font-size="16px"
     id="text1151">IDVEHICULE</text>
  <rect
     width="106"
     height="20"
     x="812"
     y="325"
     style="fill:none;stroke:black;"
     id="rect1153" />
  <text
     width="106"
     height="20"
     x="817"
     y="339"
     style="fill:black;"
     font-family="Arial"
     font-size="16px"
     id="text1155">CLIENTID</text>
  <rect
     width="106"
     height="20"
     x="812"
     y="345"
     style="fill:none;stroke:black;"
     id="rect1157" />
  <text
     width="106"
     height="20"
     x="817"
     y="359"
     style="fill:black;"
     font-family="Arial"
     font-size="16px"
     id="text1159">MODELID</text>
  <rect
     width="106"
     height="20"
     x="812"
     y="365"
     style="fill:none;stroke:black;"
     id="rect1161" />
  <text
     width="106"
     height="20"
     x="817"
     y="379"
     style="fill:black;"
     font-family="Arial"
     font-size="16px"
     id="text1163">IMMAT</text>
  <rect
     width="106"
     height="20"
     x="812"
     y="385"
     style="fill:none;stroke:black;"
     id="rect1165" />
  <text
     width="106"
     height="20"
     x="817"
     y="399"
     style="fill:black;"
     font-family="Arial"
     font-size="16px"
     id="text1167">ANNEE</text>
  <rect
     width="106"
     height="20"
     x="812"
     y="405"
     style="fill:none;stroke:black;"
     id="rect1169" />
  <text
     width="106"
     height="20"
     x="817"
     y="419"
     style="fill:black;"
     font-family="Arial"
     font-size="16px"
     id="text1171">numero_serie</text>
</svg>
