<?xml version="1.0" encoding="UTF-8" standalone="no"?>
<!-- Uploaded to: SVG Repo, www.svgrepo.com, Generator: SVG Repo Mixer Tools -->

<svg
   height="800px"
   width="800px"
   version="1.1"
   id="Capa_1"
   viewBox="0 0 56 56"
   xml:space="preserve"
   sodipodi:docname="xml-svgrepo-com.svg"
   inkscape:version="1.2.2 (b0a8486541, 2022-12-01)"
   xmlns:inkscape="http://www.inkscape.org/namespaces/inkscape"
   xmlns:sodipodi="http://sodipodi.sourceforge.net/DTD/sodipodi-0.dtd"
   xmlns="http://www.w3.org/2000/svg"
   xmlns:svg="http://www.w3.org/2000/svg"><defs
   id="defs158">
	
	
	
	
	
	
	
	
	
</defs><sodipodi:namedview
   id="namedview156"
   pagecolor="#ffffff"
   bordercolor="#000000"
   borderopacity="0.25"
   inkscape:showpageshadow="2"
   inkscape:pageopacity="0.0"
   inkscape:pagecheckerboard="0"
   inkscape:deskcolor="#d1d1d1"
   showgrid="false"
   inkscape:zoom="0.9775"
   inkscape:cx="401.02302"
   inkscape:cy="400"
   inkscape:window-width="1920"
   inkscape:window-height="1011"
   inkscape:window-x="0"
   inkscape:window-y="0"
   inkscape:window-maximized="1"
   inkscape:current-layer="Capa_1" />
<path
   style="fill:#f29c1f"
   d="m 15.5,24 c -0.256,0 -0.512,-0.098 -0.707,-0.293 -0.391,-0.391 -0.391,-1.023 0,-1.414 l 6,-6 c 0.391,-0.391 1.023,-0.391 1.414,0 0.391,0.391 0.391,1.023 0,1.414 l -6,6 C 16.012,23.902 15.756,24 15.5,24 Z"
   id="path143" /><path
   style="fill:#f29c1f"
   d="m 21.5,30 c -0.256,0 -0.512,-0.098 -0.707,-0.293 l -6,-6 c -0.391,-0.391 -0.391,-1.023 0,-1.414 0.391,-0.391 1.023,-0.391 1.414,0 l 6,6 c 0.391,0.391 0.391,1.023 0,1.414 C 22.012,29.902 21.756,30 21.5,30 Z"
   id="path145" /><path
   style="fill:#f29c1f"
   d="m 33.5,30 c -0.256,0 -0.512,-0.098 -0.707,-0.293 -0.391,-0.391 -0.391,-1.023 0,-1.414 l 6,-6 c 0.391,-0.391 1.023,-0.391 1.414,0 0.391,0.391 0.391,1.023 0,1.414 l -6,6 C 34.012,29.902 33.756,30 33.5,30 Z"
   id="path147" /><path
   style="fill:#f29c1f"
   d="m 39.5,24 c -0.256,0 -0.512,-0.098 -0.707,-0.293 l -6,-6 c -0.391,-0.391 -0.391,-1.023 0,-1.414 0.391,-0.391 1.023,-0.391 1.414,0 l 6,6 c 0.391,0.391 0.391,1.023 0,1.414 C 40.012,23.902 39.756,24 39.5,24 Z"
   id="path149" /><path
   style="fill:#f29c1f"
   d="m 24.5,32 c -0.11,0 -0.223,-0.019 -0.333,-0.058 -0.521,-0.184 -0.794,-0.755 -0.61,-1.276 l 6,-17 c 0.185,-0.521 0.753,-0.795 1.276,-0.61 0.521,0.184 0.794,0.755 0.61,1.276 l -6,17 C 25.298,31.744 24.912,32 24.5,32 Z"
   id="path151" />
</svg>
